<?xml version="1.0" encoding="utf-8"?>
<!-- Generator: Adobe Illustrator 26.2.1, SVG Export Plug-In . SVG Version: 6.00 Build 0)  -->
<svg version="1.1" id="Layer_1" xmlns="http://www.w3.org/2000/svg" xmlns:xlink="http://www.w3.org/1999/xlink" x="0px" y="0px"
	 viewBox="0 0 205 22" style="enable-background:new 0 0 205 22;" xml:space="preserve">
<style type="text/css">
	.st0{display:none;fill:#222222;}
	.st1{display:none;fill:#F09D51;}
	.st2{fill:#F09D51;}
	.st3{font-family:'JuiceITC-Regular';}
	.st4{font-size:6.7529px;}
	.st5{letter-spacing:1;}
</style>
<g id="Layer_1_00000071519559827057034550000007973267122346661530_">
	<path class="st0" d="M13.7,13.7c0.2,0,0.4,0.1,0.5,0.2l1.4,1.5c-0.7,0.9-1.6,1.6-2.6,2c-1,0.5-2.3,0.7-3.7,0.7
		c-1.3,0-2.5-0.2-3.5-0.7c-1-0.4-1.9-1.1-2.7-1.9c-0.7-0.8-1.3-1.7-1.7-2.8s-0.6-2.3-0.6-3.6c0-0.9,0.1-1.7,0.3-2.5
		C1.3,6,1.6,5.3,1.9,4.7s0.8-1.2,1.3-1.8c0.5-0.5,1.1-1,1.7-1.3C5.6,1.2,6.3,0.9,7,0.7c0.8-0.2,1.6-0.3,2.4-0.3
		c0.6,0,1.2,0.1,1.8,0.2s1.1,0.3,1.6,0.5s1,0.4,1.4,0.7s0.8,0.6,1.1,0.9l-1.2,1.7c-0.1,0.1-0.2,0.2-0.3,0.3
		c-0.1,0.1-0.3,0.1-0.5,0.1s-0.4-0.1-0.6-0.2c-0.2-0.1-0.4-0.3-0.7-0.5c-0.3-0.2-0.6-0.3-1.1-0.5c-0.4-0.1-1-0.2-1.6-0.2
		c-0.7,0-1.4,0.1-2,0.4S6.3,4.5,5.9,5s-0.8,1.1-1,1.8C4.6,7.5,4.5,8.4,4.5,9.3c0,0.9,0.1,1.8,0.4,2.5s0.6,1.3,1.1,1.8s1,0.9,1.6,1.2
		s1.3,0.4,1.9,0.4c0.4,0,0.8,0,1.1-0.1c0.3,0,0.6-0.1,0.9-0.2c0.3-0.1,0.6-0.2,0.8-0.4c0.3-0.2,0.5-0.3,0.8-0.6
		c0.1-0.1,0.2-0.1,0.3-0.2S13.6,13.7,13.7,13.7z M29.7,5.4c0.9,0,1.8,0.1,2.5,0.4c0.8,0.3,1.4,0.7,2,1.3c0.5,0.5,1,1.2,1.3,2
		s0.4,1.7,0.4,2.7s-0.1,1.9-0.4,2.7c-0.3,0.8-0.7,1.5-1.3,2c-0.5,0.6-1.2,1-2,1.3s-1.6,0.4-2.5,0.4s-1.8-0.1-2.6-0.4
		c-0.8-0.3-1.4-0.7-2-1.3c-0.5-0.6-1-1.2-1.3-2s-0.4-1.7-0.4-2.7s0.1-1.9,0.4-2.7s0.7-1.4,1.3-2c0.5-0.6,1.2-1,2-1.3
		C27.9,5.6,28.8,5.4,29.7,5.4z M29.7,15.7c0.9,0,1.6-0.3,2.1-1c0.5-0.7,0.7-1.6,0.7-2.9s-0.2-2.2-0.7-2.9s-1.2-1-2.1-1
		c-1,0-1.7,0.3-2.1,1c-0.5,0.6-0.7,1.6-0.7,2.9s0.2,2.3,0.7,2.9C28,15.4,28.7,15.7,29.7,15.7z M45.2,18V5.6h2c0.4,0,0.7,0.2,0.8,0.6
		L48.2,7c0.2-0.2,0.4-0.4,0.7-0.6c0.2-0.2,0.5-0.4,0.7-0.5c0.3-0.1,0.5-0.3,0.9-0.3c0.3-0.1,0.6-0.1,1-0.1c0.8,0,1.4,0.2,1.9,0.6
		s0.9,0.9,1.1,1.6c0.2-0.4,0.4-0.7,0.7-1s0.6-0.5,1-0.7s0.7-0.3,1.1-0.4c0.4-0.1,0.8-0.1,1.2-0.1c0.7,0,1.3,0.1,1.8,0.3
		c0.5,0.2,1,0.5,1.3,0.9c0.4,0.4,0.6,0.9,0.8,1.5s0.3,1.2,0.3,2V18h-3.3v-7.9c0-1.4-0.6-2.2-1.9-2.2c-0.3,0-0.5,0-0.8,0.1
		c-0.2,0.1-0.4,0.2-0.6,0.4c-0.2,0.2-0.3,0.4-0.4,0.7c-0.1,0.3-0.1,0.6-0.1,0.9v8h-3.3v-7.9c0-0.8-0.2-1.3-0.5-1.7
		C51.6,8.1,51.1,8,50.5,8c-0.4,0-0.7,0.1-1.1,0.3c-0.3,0.2-0.7,0.4-0.9,0.7v9H45.2z M73.3,18V8l-1-0.2c-0.2,0-0.5-0.1-0.6-0.3
		c-0.2-0.1-0.2-0.3-0.2-0.6V5.7h1.8V4.9c0-0.7,0.1-1.3,0.3-1.9c0.2-0.6,0.5-1.1,0.9-1.5s0.9-0.7,1.5-0.9s1.3-0.3,2-0.3
		c0.3,0,0.6,0,0.8,0.1c0.3,0,0.5,0.1,0.8,0.2l-0.1,1.6c0,0.2-0.1,0.4-0.3,0.5c-0.2,0.1-0.4,0.1-0.6,0.1c-0.3,0-0.6,0-0.9,0.1
		c-0.2,0-0.5,0.1-0.7,0.3s-0.3,0.4-0.4,0.7S76.5,4.5,76.5,5v0.7h3.1V8h-3v10H73.3z M99.8,5.6l-6.7,15.7c-0.1,0.2-0.2,0.4-0.4,0.5
		C92.6,21.9,92.3,22,92,22h-2.5l2.3-5l-5-11.4h2.9c0.3,0,0.5,0.1,0.6,0.2s0.2,0.3,0.3,0.4l2.4,5.9c0.1,0.2,0.2,0.5,0.2,0.7
		c0.1,0.2,0.1,0.5,0.2,0.7c0.1-0.5,0.3-0.9,0.5-1.4l2.2-5.9c0.1-0.2,0.2-0.3,0.3-0.4s0.4-0.2,0.6-0.2C97,5.6,99.8,5.6,99.8,5.6z"/>
	<path class="st1" d="M123.6,0.6V18H120v-7.5h-7.7V18h-3.6V0.6h3.6V8h7.7V0.6H123.6z M139.2,5.4c0.9,0,1.8,0.1,2.5,0.4
		c0.8,0.3,1.4,0.7,2,1.3c0.5,0.5,1,1.2,1.3,2s0.4,1.7,0.4,2.7s-0.1,1.9-0.4,2.7c-0.3,0.8-0.7,1.5-1.3,2c-0.5,0.6-1.2,1-2,1.3
		s-1.6,0.4-2.5,0.4s-1.8-0.1-2.6-0.4s-1.4-0.7-2-1.3c-0.5-0.6-1-1.2-1.3-2s-0.4-1.7-0.4-2.7s0.1-1.9,0.4-2.7c0.3-0.8,0.7-1.4,1.3-2
		c0.5-0.6,1.2-1,2-1.3C137.4,5.6,138.3,5.4,139.2,5.4z M139.2,15.7c0.9,0,1.6-0.3,2.1-1s0.7-1.6,0.7-2.9s-0.2-2.2-0.7-2.9
		s-1.2-1-2.1-1c-1,0-1.7,0.3-2.1,1c-0.5,0.6-0.7,1.6-0.7,2.9s0.2,2.3,0.7,2.9C137.5,15.4,138.3,15.7,139.2,15.7z M165.6,5.6V18h-2
		c-0.4,0-0.7-0.2-0.8-0.6l-0.2-0.9c-0.2,0.2-0.5,0.5-0.8,0.7s-0.5,0.4-0.9,0.5c-0.3,0.1-0.6,0.3-1,0.3c-0.3,0.1-0.7,0.1-1.1,0.1
		c-0.7,0-1.3-0.1-1.8-0.3c-0.5-0.2-1-0.6-1.3-1c-0.4-0.4-0.6-0.9-0.8-1.5s-0.3-1.2-0.3-1.9V5.6h3.3v7.9c0,0.7,0.2,1.2,0.5,1.6
		c0.3,0.4,0.8,0.6,1.4,0.6c0.5,0,0.9-0.1,1.3-0.3c0.4-0.2,0.8-0.5,1.2-0.8v-9H165.6z M183.2,8.2c-0.1,0.1-0.2,0.2-0.3,0.3
		s-0.2,0.1-0.4,0.1s-0.3,0-0.5-0.1s-0.4-0.2-0.6-0.3c-0.2-0.1-0.4-0.2-0.7-0.3c-0.3-0.1-0.6-0.1-0.9-0.1c-0.5,0-1,0.1-1.2,0.3
		c-0.3,0.2-0.4,0.5-0.4,0.9c0,0.2,0.1,0.5,0.3,0.6c0.2,0.2,0.4,0.3,0.7,0.4c0.3,0.1,0.6,0.2,0.9,0.3c0.4,0.1,0.7,0.2,1.1,0.3
		c0.4,0.1,0.7,0.3,1.1,0.4c0.4,0.2,0.7,0.4,0.9,0.6c0.3,0.2,0.5,0.6,0.7,0.9c0.2,0.4,0.3,0.8,0.3,1.3c0,0.6-0.1,1.2-0.3,1.7
		s-0.5,0.9-1,1.3s-1,0.7-1.6,0.9c-0.6,0.2-1.4,0.3-2.2,0.3c-0.4,0-0.8,0-1.3-0.1c-0.4-0.1-0.8-0.2-1.2-0.3c-0.4-0.1-0.7-0.3-1.1-0.5
		c-0.3-0.2-0.6-0.4-0.9-0.6l0.8-1.2c0.1-0.1,0.2-0.3,0.3-0.3c0.1-0.1,0.3-0.1,0.5-0.1s0.4,0.1,0.6,0.2c0.2,0.1,0.4,0.2,0.6,0.3
		c0.2,0.1,0.5,0.2,0.7,0.3c0.3,0.1,0.6,0.1,1.1,0.1c0.3,0,0.6,0,0.8-0.1s0.4-0.2,0.6-0.3c0.1-0.1,0.2-0.3,0.3-0.4
		c0.1-0.2,0.1-0.3,0.1-0.5c0-0.3-0.1-0.5-0.3-0.7s-0.4-0.3-0.7-0.5c-0.3-0.1-0.6-0.2-0.9-0.3c-0.4-0.1-0.7-0.2-1.1-0.3
		c-0.4-0.1-0.7-0.3-1.1-0.5c-0.4-0.2-0.7-0.4-0.9-0.7c-0.3-0.3-0.5-0.6-0.7-1S175,9.6,175,9.1s0.1-1,0.3-1.5s0.5-0.9,0.9-1.2
		c0.4-0.4,0.9-0.6,1.5-0.8c0.6-0.2,1.3-0.3,2.1-0.3c0.9,0,1.7,0.1,2.4,0.4s1.3,0.7,1.8,1.1L183.2,8.2z M201.2,10.4
		c0-0.3,0-0.7-0.1-1s-0.2-0.6-0.4-0.8s-0.5-0.4-0.8-0.6c-0.3-0.1-0.7-0.2-1.1-0.2c-0.8,0-1.4,0.2-1.9,0.7s-0.7,1.1-0.9,1.9H201.2z
		 M195.9,12.3c0.1,1.2,0.4,2,1,2.5s1.3,0.8,2.2,0.8c0.5,0,0.8-0.1,1.2-0.2c0.3-0.1,0.6-0.2,0.9-0.4c0.3-0.1,0.5-0.3,0.7-0.4
		c0.2-0.1,0.4-0.2,0.6-0.2c0.3,0,0.5,0.1,0.6,0.3l1,1.2c-0.4,0.4-0.7,0.7-1.2,1c-0.4,0.3-0.9,0.5-1.3,0.6c-0.5,0.2-0.9,0.3-1.4,0.3
		c-0.5,0.1-0.9,0.1-1.3,0.1c-0.9,0-1.7-0.1-2.4-0.4s-1.4-0.7-2-1.3c-0.6-0.6-1-1.3-1.3-2.1s-0.5-1.8-0.5-2.9c0-0.8,0.1-1.6,0.4-2.4
		c0.3-0.7,0.7-1.4,1.2-1.9c0.5-0.6,1.2-1,1.9-1.3c0.7-0.3,1.6-0.5,2.5-0.5c0.8,0,1.5,0.1,2.2,0.4c0.7,0.2,1.2,0.6,1.7,1.1
		s0.9,1.1,1.1,1.8c0.3,0.7,0.4,1.5,0.4,2.4c0,0.2,0,0.5,0,0.6c0,0.2-0.1,0.3-0.1,0.4c-0.1,0.1-0.1,0.2-0.2,0.2c-0.1,0-0.2,0-0.4,0
		h-7.5V12.3z"/>
</g>
<g id="Layer_2_00000055705803972463167060000014570301241701429167_">
	<g>
		<g>
			<path class="st2" d="M100,11.6c0,0.3-0.2,0.6-0.6,0.8c-0.3,0.2-0.7,0.3-1.1,0.3c-0.3,0-0.7-0.1-1.1-0.2v-1h0.3
				c0,0.3,0.1,0.5,0.3,0.7c0.2,0.2,0.5,0.3,0.8,0.3s0.5-0.1,0.6-0.2c0.2-0.1,0.2-0.3,0.2-0.5s-0.1-0.4-0.4-0.6
				c-0.1-0.1-0.3-0.2-0.7-0.4c-0.3-0.2-0.5-0.3-0.7-0.4c-0.1-0.1-0.2-0.2-0.2-0.3c-0.1-0.1-0.1-0.2-0.1-0.3c0-0.3,0.2-0.6,0.5-0.8
				s0.7-0.3,1.1-0.3c0.2,0,0.5,0,0.9,0.1v0.9h-0.3c0-0.2-0.1-0.4-0.3-0.6c-0.2-0.2-0.4-0.3-0.7-0.3c-0.2,0-0.4,0-0.5,0.1
				s-0.2,0.2-0.2,0.4s0.1,0.4,0.4,0.6c0.1,0.1,0.3,0.2,0.7,0.4c0.3,0.2,0.5,0.3,0.6,0.4C99.9,11.2,100,11.4,100,11.6z"/>
			<path class="st2" d="M104.6,10h-0.3c0-0.5-0.4-0.8-1.1-0.8H103v2.9c0,0.3,0.2,0.4,0.5,0.5v0.1h-1.8v-0.1c0.2,0,0.4,0,0.4-0.1
				c0.1-0.1,0.1-0.2,0.1-0.4V9.2H102c-0.7,0-1,0.3-1,0.8h-0.3V8.9h0.2C100.9,9,101,9,101,9h3.1c0.1,0,0.1,0,0.1-0.1h0.2V10H104.6z"
				/>
			<path class="st2" d="M109.6,10.4c0,0.4-0.1,0.7-0.4,1.1c-0.3,0.3-0.6,0.6-1,0.8s-0.8,0.2-1.2,0.2c-0.6,0-1.1-0.2-1.5-0.5
				s-0.6-0.7-0.6-1.2c0-0.6,0.3-1,0.8-1.5c0.5-0.4,1.1-0.6,1.8-0.6c0.8,0,1.4,0.3,1.9,0.8C109.5,9.7,109.6,10.1,109.6,10.4z
				 M109,10.9c0-0.4-0.1-0.7-0.3-1c-0.2-0.3-0.5-0.6-0.8-0.8C107.6,9,107.3,9,107,9c-0.5,0-0.9,0.1-1.1,0.4c-0.3,0.3-0.4,0.6-0.4,1
				c0,0.5,0.2,1,0.6,1.3c0.4,0.4,0.9,0.6,1.5,0.6c0.4,0,0.8-0.1,1.1-0.4C108.9,11.6,109,11.3,109,10.9z"/>
			<path class="st2" d="M114.4,12.6h-0.9c-0.2,0-0.3-0.1-0.5-0.2l-1.4-1.8V12c0,0.3,0.2,0.4,0.6,0.5v0.1h-1.8v-0.1
				c0.2,0,0.4,0,0.4-0.1c0.1-0.1,0.1-0.2,0.1-0.4V9.5c0-0.2,0-0.3-0.1-0.4C110.7,9,110.6,9,110.4,9V8.9h2.3c0.7,0,1,0.2,1,0.6
				c0,0.5-0.4,0.9-1.1,1.2l0.8,1c0.4,0.4,0.7,0.7,1,0.7V12.6z M113,9.9c0-0.2-0.1-0.4-0.2-0.6c-0.1-0.2-0.4-0.3-0.6-0.3
				s-0.4,0-0.6,0.1v1.2c0.3,0.2,0.5,0.2,0.7,0.2C112.8,10.6,113,10.4,113,9.9z"/>
			<path class="st2" d="M118.2,11.4l-0.3,1.2h-0.2c0-0.1,0-0.1-0.1-0.1H115v-0.1c0.2,0,0.4,0,0.4-0.1s0.1-0.2,0.1-0.4V9.4
				c0-0.2,0-0.3-0.1-0.4s-0.2,0-0.5,0V8.8h2.6c0.2,0,0.2,0,0.2-0.1h0.2v1.1h-0.3c0-0.5-0.4-0.8-1.2-0.8h-0.3c0,0.2,0,0.4,0,0.6
				c0,0.6,0.3,1,1,1h0.4v0.2h-1.3v1.6h0.4c0.8,0,1.3-0.3,1.4-0.9h0.2V11.4z"/>
			<text transform="matrix(0.9968 0 0 1 64.6829 12.7002)"><tspan x="0" y="0" class="st3 st4 st5">Coin</tspan><tspan x="13.5" y="0" class="st2 st3 st4 st5">V</tspan><tspan x="17.2" y="0" class="st3 st4 st5">erse</tspan></text>
		</g>
	</g>
</g>
<g id="Layer_3">
	<rect x="146.4" y="-23.2" class="st2" width="12.3" height="8.3"/>
</g>
</svg>
